<svg xmlns="http://www.w3.org/2000/svg" width="141" height="55" viewBox="0 0 141 55">
    <path fill="#000" fill-rule="nonzero"
          d="M73.107 20.831c-3.769 0-6.81 2.988-6.81 6.69 0 3.702 3.041 6.69 6.81 6.69 3.768 0 6.81-2.988 6.81-6.69 0-3.702-3.042-6.69-6.81-6.69zM83.14 37.378V27.52c0-5.441-4.495-9.857-10.034-9.857-5.54 0-10.034 4.416-10.034 9.857 0 5.441 4.495 9.857 10.034 9.857 2.588 0 4.903-.982 6.72-2.543v2.543h3.314zM73.152 14.23c7.31 0 13.258 5.887 13.258 13.068v14.986l-6.765-2.766-.908-.356a13.608 13.608 0 0 1-5.585 1.204c-7.355 0-13.303-5.843-13.303-13.068 0-7.18 5.948-13.068 13.303-13.068zM17.76 15.88c6.538 0 11.805 5.174 11.805 11.552v11.551h-3.95V36.04a11.837 11.837 0 0 1-7.855 2.943C11.267 38.983 6 33.81 6 27.432S11.267 15.88 17.76 15.88zm0 19.268c4.358 0 7.854-3.48 7.854-7.716 0-4.237-3.496-7.716-7.854-7.716-4.314 0-7.81 3.479-7.81 7.716s3.496 7.716 7.81 7.716zm14.938 3.835V12h3.904v26.983h-3.904zm91.397 0V12H128v26.983h-3.905zm-72.6-3.835c2.18 0 4.131-.892 5.584-2.275l2.77 2.72a11.875 11.875 0 0 1-8.354 3.39c-6.493 0-11.76-5.173-11.76-11.551s5.267-11.552 11.76-11.552c3.269 0 6.22 1.294 8.354 3.39l-2.77 2.72c-1.453-1.382-3.405-2.274-5.584-2.274-4.314 0-7.81 3.479-7.81 7.716s3.496 7.716 7.81 7.716zM93.493 15.88h3.905v3.836h-3.905v19.267h-3.905V12h3.905v3.88zm15.664 3.836a7.865 7.865 0 0 1 7.628 5.798h-15.21a7.851 7.851 0 0 1 7.582-5.798zm5.948 12.711a7.797 7.797 0 0 1-5.948 2.72 7.851 7.851 0 0 1-7.582-5.797h19.206c.09-.625.181-1.25.181-1.918 0-6.378-5.266-11.552-11.805-11.552-6.492 0-11.76 5.174-11.76 11.552 0 6.378 5.268 11.551 11.76 11.551 4.677 0 8.718-2.676 10.625-6.556h-4.677z"/>
</svg>
