<svg xmlns="http://www.w3.org/2000/svg" width="141" height="55" viewBox="0 0 141 55">
    <g fill="#000" fill-rule="nonzero">
        <path d="M106.056 32.39c0-.186 0-.372.932-.652s3.356-1.118 4.754-1.864c1.398-.839 1.677-.932 2.05-.652.373.186.28.745.28 1.118v3.915c.559-.84 2.237-3.728 3.635-4.567 1.118-.653 1.491-.746 2.143-.746.84 0 2.703.466 2.797 2.517.093 1.584-1.119 2.237-1.865 2.143-.559-.093-1.025-.652-1.398-1.211-.372-.56-.932-.84-1.49-.653-.56.187-3.73 2.237-3.915 5.126-.094 2.144 0 8.762 0 8.762 0 1.025.372 1.398.838 1.677.466.28 2.05.28 2.517.373.466.093.466.187.466.28 0 .186 0 .186-.373.186h-11.091c-.373 0-.466-.093-.466-.28 0-.28.466-.28.839-.28.372-.092 2.237.094 2.796-.838.373-.652.373-1.584.373-1.584l-.094-11.65c0-.933-.28-1.12-.559-1.213-.28-.186-.652-.186-1.584.094-.84.093-1.492.372-1.585 0M67.376 32.39c-.186-.279.094-.465.933-.652.932-.28 2.889-.839 4.473-1.77 1.585-.933 1.864-1.026 2.237-.84.373.094.28.746.28 1.212v15.1c0 .838.093 1.21.466 1.584.373.373 1.305.559 2.61.559.559 0 .745.093.745.28 0 .186-.186.28-.373.28H67.843c-.373 0-.373-.187-.373-.28 0-.187.186-.28.652-.28s2.423.186 2.89-.839c.186-.373.28-.932.28-1.491V33.136c0-.932-.747-1.305-1.492-1.118-1.119.186-2.237.745-2.424.373M72.969 21.952a2.705 2.705 0 0 0 2.703-2.703 2.705 2.705 0 0 0-2.703-2.703 2.705 2.705 0 0 0-2.703 2.703 2.705 2.705 0 0 0 2.703 2.703M86.204 39.101c.559 4.94 3.448 8.762 7.083 8.11 3.635-.653 5.406-4.102 5.033-9.694-.466-5.686-3.262-8.482-6.99-8.109-3.915.373-5.686 4.754-5.126 9.693m3.541-10.532c4.66-.839 11.278.187 12.863 7.457 1.49 7.27-3.542 11.184-7.923 12.116-4.287.932-11.557.28-12.862-7.643-1.118-6.99 4.008-11.184 7.922-11.93M34.475 46.837h2.703c10.066 0 12.77-.932 16.311-5.685 3.542-4.754 4.008-11.464 4.008-13.794s-.653-8.016-4.194-12.863C49.76 9.742 43.796 8.437 38.67 8.437h-4.195c-1.025 0-1.025.466-1.025 1.119v36.35c-.093.838.187.931 1.025.931m-16.403.932c0-.372.466-.466.932-.466 5.126-.186 6.058-.28 6.71-.932.28-.373.746-.652.746-2.982V10.674c0-2.982-3.542-2.516-6.058-2.703-.84-.093-.932-.186-.932-.466s.186-.373.652-.373h20.691c22.742 0 23.86 16.59 23.86 21.064 0 9.507-6.337 19.946-19.48 19.946H18.725c-.373 0-.652-.093-.652-.373"/>
    </g>
</svg>
