<svg xmlns="http://www.w3.org/2000/svg" width="141" height="55" viewBox="0 0 141 55">
    <path fill="#000" fill-rule="nonzero"
          d="M61.344 34.185v2.625h16.314v-3.804H65.16v-3.58h8.903v-3.803H65.16V21.97h12.498v-3.804H61.344v16.02zm-60.595 0v2.625h16.314v-3.804H4.565v-3.58h8.903v-3.803H4.565V21.97h12.498v-3.804H.75v16.02zm26.802-16.02h4.455L38.6 30.327l6.636-12.162h4.455L38.64 37.975 27.55 18.165zm106.272 3.804v14.84h-3.808V21.97h-6.91v-3.804h17.479v3.804h-6.761zm-23.537 16.006L95.392 25.24v11.657h-3.75V17l14.894 12.736v-11.82h3.75v20.06z"/>
</svg>
