<svg xmlns="http://www.w3.org/2000/svg" width="141" height="55" viewBox="0 0 141 55">
    <path fill="#1A1919" fill-rule="evenodd"
          d="M102.46 1.268h.16c.107 0 .182-.017.226-.052a.163.163 0 0 0 .065-.134c0-.055-.021-.1-.062-.133-.042-.035-.113-.052-.213-.052h-.175v.37zm-.364-.628h.658c.187 0 .321.038.405.113a.393.393 0 0 1 .126.304c0 .099-.032.184-.096.257a.557.557 0 0 1-.3.157.418.418 0 0 1 .124.069.683.683 0 0 1 .117.15l.24.426h-.435c-.142-.28-.236-.448-.284-.503-.049-.054-.097-.082-.145-.082a.32.32 0 0 0-.045.005v.58h-.365V.64zm1.735.738c0-.307-.108-.57-.325-.786a1.07 1.07 0 0 0-.786-.327c-.306 0-.568.11-.785.327-.217.216-.325.479-.325.786 0 .307.108.57.325.786.217.217.48.327.785.327.307 0 .57-.11.786-.327.217-.217.325-.48.325-.786zm.268 0c0 .247-.061.477-.184.69a1.361 1.361 0 0 1-.504.504 1.359 1.359 0 0 1-.69.184c-.245 0-.474-.061-.688-.184a1.36 1.36 0 0 1-.504-.504 1.348 1.348 0 0 1-.185-.69c0-.246.061-.476.185-.69.123-.213.291-.38.504-.504.214-.123.443-.184.688-.184.247 0 .477.061.69.184.213.123.38.291.504.505.123.213.184.443.184.69zm-68.015 32.87h.16c.106 0 .181-.017.225-.053a.164.164 0 0 0 .066-.133c0-.055-.022-.1-.063-.134-.043-.035-.113-.052-.213-.052h-.175v.371zm-.365-.628h.659c.186 0 .321.037.405.112a.393.393 0 0 1 .125.304.377.377 0 0 1-.095.257.568.568 0 0 1-.302.157.425.425 0 0 1 .126.07.728.728 0 0 1 .117.149l.239.426h-.434c-.142-.28-.237-.448-.285-.502-.048-.055-.096-.083-.145-.083a.196.196 0 0 0-.045.006v.58h-.365V33.62zm1.736.738c0-.308-.109-.57-.326-.787a1.066 1.066 0 0 0-.785-.326c-.307 0-.568.108-.785.326-.217.217-.326.48-.326.787 0 .306.109.569.326.786.217.217.478.326.785.326.307 0 .568-.109.785-.326.217-.217.326-.48.326-.786zm.268 0c0 .246-.061.475-.185.69a1.356 1.356 0 0 1-.504.504 1.36 1.36 0 0 1-.69.183c-.244 0-.474-.06-.687-.183a1.356 1.356 0 0 1-.505-.505 1.361 1.361 0 0 1-.184-.69c0-.246.062-.475.184-.689a1.35 1.35 0 0 1 .505-.504c.213-.123.443-.184.688-.184.246 0 .476.06.689.184.213.123.381.29.504.504.124.214.185.443.185.69zm-4.84-6.434h6.438l4.636-12.17-.515 12.17h6.825L60.7.009h-6.375L49.56 12.341 50.332.009h-6.89l-10.56 27.915zM61.728.009L51.362 27.924h6.44L68.232.009H61.73zm15.26 25.983L86.328.75 76.41 11.31l.58 14.682zm-47.713 1.932s-.242 10.238 10.335 10.238h1.449s2.125.676 38.73-10.238H70.52l-.483-11.495-4.347 11.495h-6.664L69.553.009h6.375l-2.897 8.018L79.887.009h20.091L98.24 4.646h-6.858l-2.124 5.891h6.374l-2.027 5.216h-6.279l-2.51 6.858h7.533l-.58 2.028s27.334-7.05 30.232-7.823c0 0-77.903 36.918-90.652 36.918 0 0-12.31.075-12.31-9.97 0 0-1.401-9.369 12.894-25.21 0 0-2.656 5.023-2.656 9.37z"/>
</svg>
